<svg width="25" height="30" viewBox="0 0 25 30" fill="none" xmlns="http://www.w3.org/2000/svg">
<rect width="25" height="30" rx="2" fill="url(#paint0_linear_302_2)"/>
<path fill-rule="evenodd" clip-rule="evenodd" d="M0 27V28C0 29.1046 0.625 30 1.25 30V29C0.559644 29 0 28.1046 0 27ZM1.25 30H23.75C24.375 30 25 29.1046 25 28V27C25 28.1046 24.4404 29 23.75 29H1.25V30Z" fill="#031C5A" fill-opacity="0.1"/>
<path d="M6.76 22V21.16H7.02C7.32667 21.16 7.6 21.1267 7.84 21.06C8.09333 20.9933 8.29333 20.86 8.44 20.66C8.58667 20.4467 8.66 20.1333 8.66 19.72V10C8.66 9.57333 8.58667 9.26 8.44 9.06C8.29333 8.86 8.09333 8.72667 7.84 8.66C7.6 8.59333 7.32667 8.56 7.02 8.56H6.76V7.72H12.58V8.56H12.32C12.0267 8.56 11.7533 8.59333 11.5 8.66C11.26 8.71333 11.06 8.84 10.9 9.04C10.7533 9.22667 10.68 9.52 10.68 9.92V21H14.62C15.02 21 15.34 20.9133 15.58 20.74C15.8333 20.5533 16.02 20.32 16.14 20.04C16.26 19.76 16.34 19.48 16.38 19.2L16.58 17.7H17.62L17.48 22H6.76Z" fill="black"/>
<defs>
<linearGradient id="paint0_linear_302_2" x1="3.33333" y1="-1.60933e-07" x2="23.1331" y2="26.7565" gradientUnits="userSpaceOnUse">
<stop stop-color="#FFEFDD"/>
<stop offset="1" stop-color="#F3DFC9"/>
</linearGradient>
</defs>
</svg>
