<?xml version="1.0" encoding="UTF-8"?>
<svg width="48" height="48" version="1.1" viewBox="0 0 48 48" xmlns="http://www.w3.org/2000/svg" xmlns:xlink="http://www.w3.org/1999/xlink">
 <defs>
  <linearGradient id="linearGradient14" x1="9.525" x2="3.175" y1="10.583" y2="2.1167" gradientTransform="matrix(3.7795 0 0 3.7795 0 9e-6)" gradientUnits="userSpaceOnUse">
   <stop offset="0"/>
   <stop stop-color="#403c37" offset="1"/>
  </linearGradient>
  <linearGradient id="linearGradient8" x1="4.1366" x2="6.2533" y1="3.782" y2="5.8987" gradientTransform="matrix(3.7795 0 0 3.7795 0 9e-6)" gradientUnits="userSpaceOnUse" xlink:href="#linearGradient5"/>
  <linearGradient id="linearGradient5">
   <stop stop-opacity=".1" offset="0"/>
   <stop stop-opacity="0" offset="1"/>
  </linearGradient>
  <linearGradient id="linearGradient4" x1="8.5063" x2="10.68" y1="9.2604" y2="11.377" gradientTransform="matrix(3.7795 0 0 3.7795 0 9e-6)" gradientUnits="userSpaceOnUse" xlink:href="#linearGradient5"/>
  <linearGradient id="linearGradient12" x1="5.7345" x2="7.8512" y1="3.782" y2="5.8987" gradientTransform="matrix(3.7795 0 0 3.7795 0 9e-6)" gradientUnits="userSpaceOnUse" xlink:href="#linearGradient5"/>
  <linearGradient id="a-6" x1="44" x2="4" y1="47.996" y2="-.0039835" gradientTransform="translate(3.75e-5 .003993)" gradientUnits="userSpaceOnUse">
   <stop stop-color="#f3dfc9" offset="0"/>
   <stop stop-color="#ffefdd" offset="1"/>
  </linearGradient>
 </defs>
 <path d="m4 40.992c-0.0044 1.662 1.33 3.0035 2.992 3.008h34.008c1.662 0 3-1.338 3-3v-34c0-1.662-1.338-3-3-3l-34 4e-3c-1.662 0-3 1.338-3 3" fill="url(#a-6)"/>
 <g>
  <path d="m24.601 13 8 8-1e-6 1.2941-2.9272 3e-6v11.165h-8v-19.165h2.9272" fill="url(#linearGradient12)" stroke-width=".05" style="paint-order:markers stroke fill"/>
  <path d="m15.634 35 8 8 16.515-4e-6 0.21566-6.6246-8-8-0.21568 6.6246z" fill="url(#linearGradient4)" stroke-width=".05" style="paint-order:markers stroke fill"/>
  <path d="m41 44c1.662 0 3-1.338 3-3v-1c0 1.662-1.338 3-3 3h-34c-1.662 0-3-1.338-3-3v1c0 1.662 1.338 3 3 3" fill="#e0cebc"/>
 </g>
 <path d="m15.635 14.295 2.9258 2.9258h1.8574l-1.8555-2.9258zm7.8691 7.8691 0.13086 0.13086-0.08203-0.13086z" fill="url(#linearGradient8)" stroke-width=".05" style="paint-order:markers stroke fill"/>
 <path d="m15.634 35v-1.2941h0.40055c0.47246 0 0.89356-0.0513 1.2633-0.15406 0.3903-0.10276 0.69841-0.30812 0.92437-0.61625 0.22598-0.32862 0.33894-0.81144 0.33894-1.4482v-14.975c0-0.65734-0.11296-1.1401-0.33894-1.4482-0.22598-0.30812-0.53407-0.51354-0.92437-0.61625-0.36975-0.10271-0.79084-0.15406-1.2633-0.15406h-0.40055v-1.2941h8.9664v1.2941h-0.40056c-0.45185 0-0.87307 0.05136-1.2633 0.15406-0.36975 0.08216-0.67787 0.27731-0.92437 0.58543-0.22598 0.28759-0.33894 0.7395-0.33894 1.3557v17.07h6.07c0.61625 0 1.1092-0.13357 1.479-0.40056 0.39024-0.28763 0.67787-0.64706 0.86275-1.0784 0.18488-0.43137 0.30814-0.86274 0.36975-1.2941l0.30814-2.3109h1.6022l-0.21568 6.6246z" fill="url(#linearGradient14)" stroke-width="1.5406"/>
</svg>
