<svg width="32" height="32" viewBox="0 0 32 32" fill="none" xmlns="http://www.w3.org/2000/svg">
<rect x="8" y="5" width="17" height="22" rx="1" fill="#FFEFDD"/>
<path opacity="0.3" d="M8 25V26C8 26.554 8.27079 27 8.60714 27H24.3929C24.7292 27 25 26.554 25 26V25C25 25.554 24.7292 26 24.3929 26H8.60714C8.27079 26 8 25.554 8 25Z" fill="black"/>
<path opacity="0.3" d="M8 7V6C8 5.446 8.27079 5 8.60714 5H24.3929C24.7292 5 25 5.446 25 6V7C25 6.446 24.7292 6 24.3929 6H8.60714C8.27079 6 8 6.446 8 7Z" fill="white"/>
<path d="M19.84 18.248H20.288V21H12.688V20.552L13.568 20.44C13.7387 20.4187 13.84 20.376 13.872 20.312C13.904 20.2373 13.92 20.0187 13.92 19.656V11.464C13.92 11.1013 13.904 10.888 13.872 10.824C13.84 10.7493 13.7387 10.7013 13.568 10.68L12.688 10.568V10.12H17.072V10.568L16.192 10.68C16.0213 10.7013 15.92 10.7493 15.888 10.824C15.856 10.888 15.84 11.1013 15.84 11.464V20.44H18.464C18.72 20.44 18.9013 20.4347 19.008 20.424C19.1147 20.4027 19.184 20.3653 19.216 20.312C19.2587 20.248 19.296 20.152 19.328 20.024L19.84 18.248Z" fill="black"/>
</svg>
