<svg width="32" height="32" viewBox="0 0 32 32" fill="none" xmlns="http://www.w3.org/2000/svg">
<rect x="2" y="5" width="28" height="22" rx="1" fill="#FFEFDD"/>
<path opacity="0.3" d="M2 25V26C2 26.554 2.446 27 3 27H29C29.554 27 30 26.554 30 26V25C30 25.554 29.554 26 29 26H3C2.446 26 2 25.554 2 25Z" fill="black"/>
<path opacity="0.3" d="M2 7V6C2 5.446 2.446 5 3 5H29C29.554 5 30 5.446 30 6V7C30 6.446 29.554 6 29 6H3C2.446 6 2 6.446 2 7Z" fill="white"/>
<path d="M19.84 18.248H20.288V21H12.688V20.552L13.568 20.44C13.7387 20.4187 13.84 20.376 13.872 20.312C13.904 20.2373 13.92 20.0187 13.92 19.656V11.464C13.92 11.1013 13.904 10.888 13.872 10.824C13.84 10.7493 13.7387 10.7013 13.568 10.68L12.688 10.568V10.12H17.072V10.568L16.192 10.68C16.0213 10.7013 15.92 10.7493 15.888 10.824C15.856 10.888 15.84 11.1013 15.84 11.464V20.44H18.464C18.72 20.44 18.9013 20.4347 19.008 20.424C19.1147 20.4027 19.184 20.3653 19.216 20.312C19.2587 20.248 19.296 20.152 19.328 20.024L19.84 18.248Z" fill="black"/>
</svg>
